<?xml version="1.0" encoding="UTF-8" standalone="no" ?>
<!DOCTYPE svg PUBLIC "-//W3C//DTD SVG 1.1//EN" "http://www.w3.org/Graphics/SVG/1.1/DTD/svg11.dtd">
<svg xmlns="http://www.w3.org/2000/svg" xmlns:xlink="http://www.w3.org/1999/xlink" version="1.1" width="284.8731814904596" height="281.35625" viewBox="0 0 284.8731814904596 281.35625" xml:space="preserve">
<desc>Created with Fabric.js 5.3.0</desc>
<defs>
</defs>
<g transform="matrix(1 0 0 1 142.4365907452 140.678125)" id="Khi2YLZv-kPn3Z2Gl8CMt"  >
<g style=""   >
		<g transform="matrix(2.7006499793 0 0 2.7006499793 -0.0000976201 -0.0043430265)" id="LY6mr9NWp12NpDg98J5nf"  >
<linearGradient id="SVGID_0" gradientUnits="objectBoundingBox" gradientTransform="matrix(1 0 0 1 0 0)"  x1="0" y1="0" x2="1" y2="0">
<stop offset="0%" style="stop-color:rgb(143,94,37);stop-opacity: 1"/>
<stop offset="50%" style="stop-color:rgb(251,244,161);stop-opacity: 1"/>
<stop offset="100%" style="stop-color:rgb(143,94,37);stop-opacity: 1"/>
</linearGradient>
<path style="stroke: none; stroke-width: 1; stroke-dasharray: none; stroke-linecap: butt; stroke-dashoffset: 0; stroke-linejoin: miter; stroke-miterlimit: 4; fill: url(#SVGID_0); fill-rule: nonzero; opacity: 1;"  transform=" translate(-52.779076181, -52.0601909883)" d="M 104.6 41.3 C 103.85798661821212 37.44698700764424 102.6839038704054 33.68992221466274 101.09999999999997 30.099999999999966 C 91.29614000646993 8.315759658095548 67.707782604451 -3.7691206306148466 44.29999999999997 1.0000000000000107 C 42.37194558552613 1.3865677735549244 40.46858590735401 1.8874518993896934 38.59999999999998 2.500000000000007 C 35.89478837495878 3.174084170459246 33.25190380895356 4.077348515802798 30.699999999999996 5.199999999999996 C 17.537163145913844 11.04372345097477 7.415463028922055 22.122510542565774 2.78155467167808 35.75835562658699 C -1.8523536855658946 49.3942007106082 -0.5767579970345551 64.34616353555245 6.300000000000004 77 C 7.513786473824303 79.22749540199976 8.883884103270024 81.36618438454919 10.400000000000002 83.4 C 11.938309050901415 85.40886807249805 13.608670284551458 87.31307987885911 15.400000000000006 89.10000000000002 C 29.925423085852916 103.5537458760235 51.616521981598744 108.06455306049145 70.69999999999999 100.60000000000001 L 73.99999999999999 99.2 L 76.99999999999999 97.7 C 79.0174633555894 96.56664549341944 80.95529194930559 95.29703365615711 82.8 93.89999999999999 L 85.49999999999999 91.80000000000001 L 86.69999999999999 90.70000000000002 L 87.79999999999998 89.80000000000001 L 89.79999999999998 88.00000000000001 L 90.49999999999999 87.40000000000002 L 91.09999999999998 86.70000000000002 L 92.89999999999998 84.70000000000002 C 95.15247457025686 82.14803671518028 97.1300390476288 79.3660392300638 98.79999999999998 76.40000000000002 C 101.42455351144531 71.82330418093493 103.31423144279012 66.86289961115479 104.39999999999998 61.699999999999996 C 105.82364897476992 54.981075132033396 105.89164436438888 48.04554539089956 104.59999999999998 41.300000000000004 z M 87.1 88.6 L 85.89999999999999 89.69999999999999 L 84.69999999999999 90.79999999999998 L 82.1 92.89999999999998 C 80.28401989695355 94.22814135140558 78.3796042348555 95.4309301906254 76.39999999999998 96.49999999999997 L 73.39999999999999 97.99999999999997 L 70.19999999999999 99.29999999999997 L 65.29999999999998 100.89999999999996 L 64.79999999999998 100.89999999999996 C 58.108689640142636 102.2960447541541 51.20473941953864 102.33005436115214 44.499999999999986 100.99999999999994 C 40.67621477920324 100.22191756644017 36.952593586567794 99.01425663909893 33.39999999999998 97.39999999999995 C 29.65236421117501 95.70234728449773 26.126229804716512 93.55308440818018 22.9 91 C 19.483018514958417 88.26227748428937 16.425491153506997 85.10395251751538 13.799999999999997 81.6 C 12.439584014014565 79.7855800424603 11.203430343709355 77.88123519901714 10.099999999999996 75.89999999999999 C 9.499999999999998 74.89999999999999 8.999999999999998 73.89999999999999 8.499999999999998 72.8 C 7.999999999999998 71.7 7.499999999999998 70.7 7.199999999999998 69.6 C 0.5855441539208215 52.36566559453003 3.881444959552012 32.89685618452246 15.799999999999986 18.800000000000004 L 16.599999999999998 17.999999999999996 L 17.099999999999998 17.399999999999995 L 17.7 16.799999999999994 L 18.9 15.699999999999994 L 21.299999999999997 13.599999999999994 C 32.81106788638171 4.27208441000441 47.83771045397482 0.46972230044313434 62.39999999999998 3.1999999999999886 C 67.54838484293803 4.129164929636254 72.5125246205724 5.885187163901478 77.09999999999998 8.399999999999995 C 80.06746084611908 10.028796303416883 82.85027306233611 11.973412068966146 85.39999999999998 14.199999999999983 L 87.39999999999999 16 L 88.1 16.6 L 88.69999999999999 17.3 L 90.49999999999999 19.3 C 96.1968813902358 25.818860411196383 100.09212661849989 33.71276445785546 101.8 42.20000000000002 C 103.11923118502952 48.872136875686934 103.08522566696574 55.74125152457049 101.69999999999999 62.40000000000001 C 100.91632346566601 66.19007218052079 99.70872875431326 69.87994490965426 98.1 73.4 C 96.34246005986041 77.15934777766466 94.12554621530728 80.68625616672647 91.5 83.9 L 89.4 86.30000000000001 z M 42.199999999999996 101.6 C 37.41389995439406 100.61048127024809 32.79834351589467 98.92597162116071 28.499999999999986 96.59999999999998 C 26.34088051367262 95.41573592296571 24.268959211867866 94.07901250244652 22.29999999999999 92.6 C 20.362762020973797 91.1231113883585 18.525411982050095 89.51960589984328 16.79999999999999 87.80000000000001 C 2.9557659949632047 73.79142803123374 -1.3535083231326084 52.950210420079486 5.79999999999999 34.6 C 6.1999999999999975 33.49999999999999 6.6999999999999975 32.49999999999999 7.099999999999997 31.499999999999993 L 7.699999999999997 30.199999999999992 C 6.148547152773676 33.72413579460875 5.00771241578369 37.41507170839989 4.299999999999998 41.2 C 2.3820459823603573 50.73542331815605 3.2143987902226723 60.61961291152112 6.699999999999989 69.69999999999996 C 7.099999999999998 70.79999999999998 7.599999999999998 71.89999999999999 8.099999999999998 72.89999999999999 C 8.599999999999998 73.89999999999999 9.099999999999998 74.99999999999999 9.699999999999998 75.99999999999999 C 10.800322901877754 78.01503483387103 12.036512715459871 79.95284589299975 13.399999999999993 81.79999999999997 C 16.045651774932757 85.34888561770225 19.13780605227865 88.54187101278768 22.59999999999998 91.29999999999997 C 25.885601006024473 93.898719232998 29.479445821199242 96.08189598987987 33.30000000000001 97.79999999999998 C 42.288727133781265 101.84630406691136 52.25746603702675 103.20094106073218 62.00000000000001 101.69999999999999 C 55.45856228442185 102.97884879699612 48.728186676194355 102.94485700099497 42.2 101.6 z M 104.1 61.699999999999996 C 103.0487463159282 66.85806389713271 101.19273340715456 71.81868021694586 98.6 76.39999999999999 C 96.96218613269482 79.36184821513388 95.01821717868509 82.14373482173401 92.8 84.69999999999999 L 91 86.69999999999999 L 90.4 87.39999999999999 L 89.7 87.99999999999999 L 87.8 89.69999999999999 L 88 89.69999999999999 L 90.3 87.29999999999998 L 92.39999999999999 84.79999999999998 C 95.0023964131911 81.48089092820987 97.18553940145983 77.85351488616335 98.9 73.99999999999999 C 103.27596113220785 64.06863581098003 104.39612491335872 53.0070184721153 102.1 42.39999999999998 C 101.50487923770802 39.599639287261056 100.66842255994162 36.85606138418726 99.60000000000001 34.20000000000003 C 98.7261782875358 31.960800266123943 97.69009272233656 29.788362790706167 96.50000000000001 27.699999999999996 C 94.82879140673056 24.734752546659223 92.85131674755615 21.952881415956238 90.6 19.399999999999984 L 88.80000000000001 17.400000000000002 L 88.20000000000002 16.700000000000003 L 87.50000000000001 16.1 L 85.50000000000001 14.3 C 82.9922194757103 11.921690442624094 80.244134451625 9.810356826558563 77.30000000000001 8.000000000000004 C 75.21474911857484 6.775357709649078 73.0422175651175 5.705803714100837 70.80000000000001 4.799999999999997 C 68.1467761445212 3.698439202525806 65.40320988086017 2.8285279481942656 62.599999999999945 2.1999999999999913 C 58.4316464429848 1.2822907916756767 54.16647264031584 0.8792822433919825 49.89999999999995 0.9999999999999898 C 57.61164830883938 0.32313279971544073 65.37599240476852 1.4176658881283761 72.59999999999998 4.20000000000001 L 75.8 5.5 L 78.89999999999999 7.1 C 80.88155151102563 8.202904909589824 82.78593119329186 9.439081194569651 84.59999999999997 10.799999999999988 L 87.19999999999999 12.9 L 88.39999999999999 14 L 89.6 15.1 L 91.89999999999999 17.4 L 93.99999999999999 19.799999999999997 C 96.58888416941467 23.0203241153566 98.77193365097718 26.54678866249603 100.49999999999997 30.299999999999986 C 102.10872875431323 33.82005509034575 103.316323465666 37.509927819479195 104.1 41.29999999999998 C 105.45758923414712 47.9985737407305 105.45758923414712 54.901426259269456 104.1 61.59999999999996 z" stroke-linecap="round" />
</g>
		<g transform="matrix(0.8168431566 0 0 0.8168431566 -4.6426429833 -40.9067036354)" id="cxhsluTjU3gqLMktfGwCS"  >
<linearGradient id="SVGID_1" gradientUnits="objectBoundingBox" gradientTransform="matrix(1 0 0 1 0 0)"  x1="0" y1="0" x2="1" y2="0">
<stop offset="0%" style="stop-color:rgb(143,94,37);stop-opacity: 1"/>
<stop offset="50%" style="stop-color:rgb(251,244,161);stop-opacity: 1"/>
<stop offset="100%" style="stop-color:rgb(143,94,37);stop-opacity: 1"/>
</linearGradient>
<path style="stroke: none; stroke-width: 1; stroke-dasharray: none; stroke-linecap: butt; stroke-dashoffset: 0; stroke-linejoin: miter; stroke-miterlimit: 4; fill: url(#SVGID_1); fill-rule: nonzero; opacity: 1;"  transform=" translate(-44.3165, -49.605)" d="M 65.432 47.178 L 65.432 28.712 L 23.201 28.712 L 23.201 36.927 C 32.49 38.394999999999996 39.623000000000005 46.434 39.623000000000005 56.129000000000005 C 39.623000000000005 61.822 37.151 66.936 33.242000000000004 70.498 L 46.006 70.498 L 65.432 47.178 z" stroke-linecap="round" />
</g>
		<g transform="matrix(0.8168431566 0 0 0.8168431566 19.4566806653 -35.2349531777)" id="_9rJbtoEZZwWFlaKcx5IX"  >
<linearGradient id="SVGID_2" gradientUnits="objectBoundingBox" gradientTransform="matrix(1 0 0 1 0 0)"  x1="0" y1="0" x2="1" y2="0">
<stop offset="0%" style="stop-color:rgb(143,94,37);stop-opacity: 1"/>
<stop offset="50%" style="stop-color:rgb(251,244,161);stop-opacity: 1"/>
<stop offset="100%" style="stop-color:rgb(143,94,37);stop-opacity: 1"/>
</linearGradient>
<path style="stroke: none; stroke-width: 1; stroke-dasharray: none; stroke-linecap: butt; stroke-dashoffset: 0; stroke-linejoin: miter; stroke-miterlimit: 4; fill: url(#SVGID_2); fill-rule: nonzero; opacity: 1;"  transform=" translate(-73.8195, -56.5485)" d="M 52.639 69.262 L 95 69.262 L 73.82 43.835 z" stroke-linecap="round" />
</g>
		<g transform="matrix(0.8168431566 0 0 0.8168431566 -24.3755315383 -35.5776188819)" id="BQd7bvO75Ng8dzP1Hz1tW"  >
<linearGradient id="SVGID_3" gradientUnits="objectBoundingBox" gradientTransform="matrix(1 0 0 1 0 0)"  x1="0" y1="0" x2="1" y2="0">
<stop offset="0%" style="stop-color:rgb(143,94,37);stop-opacity: 1"/>
<stop offset="50%" style="stop-color:rgb(251,244,161);stop-opacity: 1"/>
<stop offset="100%" style="stop-color:rgb(143,94,37);stop-opacity: 1"/>
</linearGradient>
<path style="stroke: none; stroke-width: 1; stroke-dasharray: none; stroke-linecap: butt; stroke-dashoffset: 0; stroke-linejoin: miter; stroke-miterlimit: 4; fill: url(#SVGID_3); fill-rule: nonzero; opacity: 1;"  transform=" translate(-20.159, -56.129)" d="M 5.078 54.577 C 4.121 64.152 12.136 72.167 21.711 71.21 C 28.799 70.502 34.532 64.76899999999999 35.239999999999995 57.681 C 36.196999999999996 48.105999999999995 28.181999999999995 40.090999999999994 18.606999999999996 41.048 C 11.519 41.757 5.786 47.489 5.078 54.577 z" stroke-linecap="round" />
</g>
		<g transform="matrix(1.4390005292 0 0 1.4390005292 -0.0000016468 16.7381731184)" id="Wko1K1-sRRS3V3WpQrBR4"  >
<linearGradient id="SVGID_4" gradientUnits="objectBoundingBox" gradientTransform="matrix(1 0 0 1 0 0)"  x1="0" y1="0" x2="1" y2="0">
<stop offset="0%" style="stop-color:rgb(143,94,37);stop-opacity: 1"/>
<stop offset="50%" style="stop-color:rgb(251,244,161);stop-opacity: 1"/>
<stop offset="100%" style="stop-color:rgb(143,94,37);stop-opacity: 1"/>
</linearGradient>
<path style="stroke: none; stroke-width: 1; stroke-dasharray: none; stroke-linecap: butt; stroke-dashoffset: 0; stroke-linejoin: miter; stroke-miterlimit: 4; fill: url(#SVGID_4); fill-rule: nonzero; opacity: 1;"  transform=" translate(-65.3, -25.68)" d="M 30.52 24.439999999999998 L 30.52 27.24 C 30.52 35.16 24.759999999999998 40.56 16.36 40.56 C 7.76 40.56 1.4399999999999995 34.24 1.4399999999999995 25.96 C 1.4399999999999995 17.72 7.8 11.440000000000001 16.119999999999997 11.440000000000001 C 23.04 11.440000000000001 27.799999999999997 15.32 29.559999999999995 20 L 24.479999999999997 21.44 C 23.08 18.560000000000002 20.479999999999997 16.6 16.159999999999997 16.6 C 10.679999999999996 16.6 6.9999999999999964 20.880000000000003 6.9999999999999964 25.92 C 6.9999999999999964 30.96 10.479999999999997 35.44 16.759999999999998 35.44 C 21.479999999999997 35.44 24.36 32.64 24.839999999999996 29.159999999999997 L 16.239999999999995 29.159999999999997 L 16.239999999999995 24.439999999999998 L 30.519999999999996 24.439999999999998 z M 41.61 40.56 C 35.37 40.56 30.77 35.92 30.77 29.880000000000003 C 30.77 23.800000000000004 35.37 19.200000000000003 41.61 19.200000000000003 C 47.85 19.200000000000003 52.41 23.800000000000004 52.41 29.880000000000003 C 52.41 35.92 47.849999999999994 40.56 41.61 40.56 z M 41.61 35.76 C 44.97 35.76 47.29 33.239999999999995 47.29 29.88 C 47.29 26.520000000000003 44.97 24 41.61 24 C 38.21 24 35.93 26.52 35.93 29.88 C 35.93 33.239999999999995 38.21 35.76 41.61 35.76 z M 77.42 12 L 82.66 12 L 82.66 40 L 77.17999999999999 40 L 77.17999999999999 21.56 L 68.25999999999999 33.92 L 59.33999999999999 21.560000000000002 L 59.33999999999999 40 L 53.859999999999985 40 L 53.859999999999985 12 L 59.09999999999999 12 L 68.25999999999999 25.240000000000002 z M 94.07000000000001 40.56 C 88.47000000000001 40.56 84.07000000000001 36 84.07000000000001 29.880000000000003 C 84.07000000000001 23.720000000000002 88.47000000000001 19.200000000000003 94.07000000000001 19.200000000000003 C 96.91000000000001 19.200000000000003 99.15 20.360000000000003 100.59 22.200000000000003 L 100.59 19.76 L 105.91 19.76 L 105.91 40 L 100.59 40 L 100.59 37.52 C 99.15 39.36000000000001 96.91 40.56 94.07000000000001 40.56 z M 94.99000000000001 35.84 C 98.19000000000001 35.84 100.75000000000001 33.36000000000001 100.75000000000001 29.840000000000003 C 100.75000000000001 26.360000000000003 98.19000000000001 23.92 94.99000000000001 23.92 C 91.67000000000002 23.92 89.31 26.360000000000003 89.31 29.840000000000003 C 89.31 33.36000000000001 91.67 35.84 94.99000000000001 35.84 z M 123.84 10.8 L 129.16 10.8 L 129.16 40 L 123.84 40 L 123.84 37.52 C 122.4 39.36000000000001 120.16 40.56 117.32000000000001 40.56 C 111.72000000000001 40.56 107.32000000000001 36 107.32000000000001 29.880000000000003 C 107.32000000000001 23.720000000000002 111.72000000000001 19.200000000000003 117.32000000000001 19.200000000000003 C 120.16000000000001 19.200000000000003 122.4 20.360000000000003 123.84 22.200000000000003 L 123.84 10.800000000000002 z M 118.24000000000001 35.84 C 121.44000000000001 35.84 124.00000000000001 33.36000000000001 124.00000000000001 29.840000000000003 C 124.00000000000001 26.360000000000003 121.44000000000001 23.92 118.24000000000001 23.92 C 114.92000000000002 23.92 112.56 26.360000000000003 112.56 29.840000000000003 C 112.56 33.36000000000001 114.92 35.84 118.24000000000001 35.84 z" stroke-linecap="round" />
</g>
		<g transform="matrix(0.7761120327 0 0 0.7761120327 0.0000044315 53.3371352523)" id="9Wf4cseBMaeWDftQwRSry"  >
<linearGradient id="SVGID_5" gradientUnits="objectBoundingBox" gradientTransform="matrix(1 0 0 1 0 0)"  x1="0" y1="0" x2="1" y2="0">
<stop offset="0%" style="stop-color:rgb(143,94,37);stop-opacity: 1"/>
<stop offset="50%" style="stop-color:rgb(251,244,161);stop-opacity: 1"/>
<stop offset="100%" style="stop-color:rgb(143,94,37);stop-opacity: 1"/>
</linearGradient>
<path style="stroke: none; stroke-width: 1; stroke-dasharray: none; stroke-linecap: butt; stroke-dashoffset: 0; stroke-linejoin: miter; stroke-miterlimit: 4; fill: url(#SVGID_5); fill-rule: nonzero; opacity: 1;"  transform=" translate(-95.5824050781, -12.93942)" d="M 7.9297 20.19531 C 3.8574 20.19531 0.8594000000000008 17.38281 0.8594000000000008 12.97851 C 0.8594000000000008 8.515609999999999 3.9258000000000006 5.69331 8.0762 5.69331 C 10.8008 5.69331 13.0567 6.89451 14.287099999999999 9.01361 L 11.718699999999998 10.38081 C 10.976509999999998 8.93551 9.648399999999999 8.24211 8.076099999999999 8.24211 C 5.634699999999999 8.24211 3.798799999999998 9.92181 3.798799999999998 12.91011 C 3.798799999999998 15.79101 5.517599999999998 17.64641 8.183599999999998 17.64641 C 9.990199999999998 17.64641 11.650399999999998 16.74797 12.050799999999999 14.68741 L 8.193399999999999 14.68741 L 8.193399999999999 12.33391 L 14.824299999999997 12.33391 L 14.824299999999997 19.99991 L 12.519599999999997 19.99991 L 12.519599999999997 18.04681 C 11.611399999999996 19.384710000000002 10.087999999999997 20.19521 7.929799999999997 20.19521 z M 28.67915546875 20 L 25.00725546875 13.789100000000001 L 24.15764546875 13.789100000000001 L 24.15764546875 20 L 21.22794546875 20 L 21.22794546875 5.888999999999999 L 26.34514546875 5.888999999999999 C 29.53854546875 5.888999999999999 30.88614546875 7.7738 30.88614546875 10.1078 C 30.88614546875 12.0023 29.81194546875 13.2328 27.897845468750003 13.642999999999999 L 32.145845468750004 20.0004 L 28.679045468750004 20.0004 z M 24.15775546875 8.32 L 24.15775546875 11.6891 L 25.88625546875 11.6891 C 27.44875546875 11.6891 28.08355546875 11.02504 28.08355546875 10.0094 C 28.08355546875 9.003499999999999 27.44878546875 8.319899999999999 25.88625546875 8.319899999999999 L 24.15775546875 8.319899999999999 z M 43.9111609375 20.19531 C 39.7607609375 20.19531 36.6943609375 17.36331 36.6943609375 12.939409999999999 C 36.6943609375 8.505809999999999 39.7607609375 5.6933099999999985 43.9111609375 5.6933099999999985 C 48.0517609375 5.6933099999999985 51.1181609375 8.505809999999999 51.1181609375 12.939409999999999 C 51.1181609375 17.36321 48.0517609375 20.19531 43.9111609375 20.19531 z M 43.9111609375 17.5098 C 46.3427609375 17.5098 48.2080609375 15.800799999999999 48.2080609375 12.939499999999999 C 48.2080609375 10.0879 46.3428609375 8.3887 43.9111609375 8.3887 C 41.4794609375 8.3887 39.6142609375 10.0879 39.6142609375 12.939499999999999 C 39.6142609375 15.800799999999999 41.4794609375 17.5098 43.9111609375 17.5098 z M 59.47510390625 20 L 55.78370390625 5.888999999999999 L 58.83060390625 5.888999999999999 L 61.58450390625 16.573 L 64.73880390625 5.889000000000001 L 67.20950390624999 5.889000000000001 L 70.34430390624999 16.573 L 73.12750390624998 5.889000000000001 L 76.16460390624998 5.889000000000001 L 72.47320390624998 20 L 68.70370390624998 20 L 65.96930390624999 11.2793 L 63.24470390624999 20 L 59.47520390624999 20 z M 103.01494921875 20 L 99.79224921875 20 L 98.86451921875 18.8379 C 97.58521921875 19.68751 96.06181921875 20.1953 94.39181921875 20.1953 C 91.55001921875 20.1953 89.42111921875001 18.7207 89.42111921875001 16.0449 C 89.42111921875001 14.003899999999998 90.67111921875001 13.007799999999998 93.05391921875001 11.523399999999999 L 92.93672921875002 11.376919999999998 C 91.98945921875001 10.175719999999998 91.66722921875002 9.355419999999999 91.66722921875002 8.564419999999998 C 91.66722921875002 7.626919999999998 92.07738921875003 6.914019999999998 92.76102921875002 6.425719999999998 C 93.42508921875003 5.937439999999999 94.36262921875003 5.683529999999998 95.43682921875002 5.683529999999998 C 97.80982921875002 5.683529999999998 99.28452921875002 6.8847299999999985 99.28452921875002 8.613229999999998 C 99.28452921875002 9.843729999999997 98.52280921875003 10.839829999999997 96.56972921875003 12.011629999999998 L 99.11852921875003 15.16593 C 99.84118921875003 14.062429999999999 100.23182921875002 12.78313 100.23182921875002 11.67963 L 102.77092921875003 11.67963 C 102.77092921875003 13.681629999999998 102.00920921875003 15.63473 100.72992921875003 17.16793 z M 94.63624921875 7.811999999999999 C 94.42140921875 7.9975499999999995 94.31397921874999 8.28075 94.31397921874999 8.603019999999999 C 94.31397921874999 9.071769999999999 94.53858921874999 9.462399999999999 95.05616921874999 10.12642 L 95.28077921874998 10.40962 C 96.30617921874999 9.79439 96.79447921874998 9.16942 96.79447921874998 8.56392 C 96.79447921874998 7.909619999999999 96.23783921874998 7.509219999999999 95.52497921874999 7.509219999999999 C 95.14411921874999 7.509219999999999 94.85114921875 7.616639999999999 94.63630921874999 7.8119499999999995 z M 94.50924921875 17.8906 C 95.60304921875 17.8906 96.57954921875 17.53904 97.39014921875 16.9824 L 94.42134921875 13.2519 C 92.99554921875 14.121039999999999 92.01904921875 14.7265 92.01904921875 15.9765 C 92.01904921875 17.2363 93.02494921875 17.8906 94.50924921875 17.8906 z M 122.41457890625 20.19531 C 119.38727890625 20.19531 117.02397890625 18.740209999999998 116.59427890625 16.093709999999998 L 119.62157890625 15.400349999999998 C 119.81688890625 16.982349999999997 120.97897890624999 17.802649999999996 122.53177890625 17.802649999999996 C 123.72317890625 17.802649999999996 124.67047890625 17.275309999999998 124.66067890625 16.083849999999995 C 124.65091330625 14.755749999999995 123.08837890625 14.335849999999995 121.36967890625 13.808449999999995 C 119.29937890625 13.163919999999996 117.08257890625 12.402149999999995 117.08257890625 9.804549999999995 C 117.08257890625 7.177549999999996 119.23097890625 5.6932499999999955 122.06307890625001 5.6932499999999955 C 124.54357890625002 5.6932499999999955 127.04357890625002 6.699149999999996 127.60997890625 9.404149999999996 L 124.77797890625001 10.107279999999996 C 124.51430890625001 8.700979999999996 123.56707890625002 8.085779999999996 122.23887890625001 8.085779999999996 C 121.05727890625 8.085779999999996 120.05137890625001 8.574059999999996 120.05137890625001 9.736179999999996 C 120.05137890625001 10.820179999999995 121.43807890625001 11.181479999999995 123.03967890625 11.659979999999996 C 125.16857890625 12.304509999999995 127.68807890625 13.124779999999996 127.68807890625 15.937279999999996 C 127.68807890625 18.935279999999995 125.17827890625 20.195079999999997 122.41467890625 20.195079999999997 z M 142.65659375 5.888999999999999 L 145.58629375 5.888999999999999 L 145.58629375 20 L 142.65659375 20 L 142.65659375 14.199200000000001 L 136.68979375 14.199200000000001 L 136.68979375 20 L 133.76009375 20 L 133.76009375 5.888999999999999 L 136.68979375 5.888999999999999 L 136.68979375 11.6507 L 142.65659375 11.6507 L 142.65659375 5.889 z M 152.60500859375 20 L 152.60500859375 5.888999999999999 L 155.53470859375 5.888999999999999 L 155.53470859375 20 L 152.60500859375 20 z M 172.1827734375 5.888999999999999 L 175.10267343750002 5.888999999999999 L 175.10267343750002 20 L 171.71397343750002 20 L 165.46397343750002 9.912 L 165.46397343750002 20 L 162.5440734375 20 L 162.5440734375 5.888999999999999 L 165.8936734375 5.888999999999999 L 172.1827734375 15.918 L 172.1827734375 5.888999999999999 z M 190.30541015625 8.467 L 185.07101015625 8.467 L 185.07101015625 11.670100000000001 L 189.70971015625 11.670100000000001 L 189.70971015625 14.218900000000001 L 185.07101015625 14.218900000000001 L 185.07101015625 17.412300000000002 L 190.30541015625 17.412300000000002 L 190.30541015625 20.000200000000003 L 182.12181015624998 20.000200000000003 L 182.12181015624998 5.889200000000002 L 190.30541015625 5.889200000000002 L 190.30541015625 8.467300000000002 z" stroke-linecap="round" />
</g>
</g>
</g>
</svg>